# xmcd
#
# Track frame offsets:
#	150
#	127197
#	258545
#
# Disc length: 4623 seconds
#
# Revision: 2
# Processed by: cddbd v1.5.2PL0 Copyright (c) Steve Scherf et al.
# Submitted via: audiograbber 1.83.01
#
DISCID=29120d03
DTITLE=Klaus Schulze - Mirage [reissued 2016]
DYEAR=1977
DGENRE=Electronic
TTITLE0=Velvet Voyage: 1) 1984, 2) Aeronef, 3) Eclipse, 4) Exvasion, 5) Lucid I
TTITLE0=nterspace, 6) Destination Void
TTITLE1=Crystal Lake: 1) Xylotones, 2) Chromewaves, 3) Willowdreams, 4) Liquid 
TTITLE1=Mirrors, 5) Springdance, 6) A bientôt
TTITLE2=In cosa crede chi non crede? [bonus track]
EXTD=
EXTT0=
EXTT1=
EXTT2=
PLAYORDER=
